<svg width="376" height="376" viewBox="0 0 376 376" fill="none" xmlns="http://www.w3.org/2000/svg">
<circle cx="188" cy="188" r="188" fill="#5700C6"/>
<path d="M114.386 216.723C145.64 214.184 161.529 236.393 155.639 266.1C148.015 304.467 86.9073 302.924 81.6111 263.94C78.3337 239.691 88.0948 218.859 114.386 216.723ZM124.052 236.939C121.368 234.424 116.547 234.803 113.839 237.129C107.807 242.301 107.593 267.808 113.744 273.052C117.853 276.54 123.078 274.974 125.595 270.56C129.063 264.534 129.324 241.827 124.052 236.939Z" fill="white"/>
<path d="M191.81 218.764V264.035C191.81 269.232 201.286 271.984 204.587 267.808C204.943 267.357 206.819 262.825 206.819 262.541V218.764H235.343V290.23C235.343 290.23 234.298 291.345 234.227 291.345H215.084C214.111 286.695 212.733 282.021 211.356 277.465C210.263 273.858 209.764 278.177 209.242 279.126C204.943 286.79 198.555 293.006 189.221 293.599C181.122 294.121 171.67 291.084 167.514 283.753C165.97 281.024 163.31 272.909 163.31 269.991V218.716H191.833L191.81 218.764Z" fill="white"/>
<path d="M278.116 218.764H295.382L294.622 236.725H278.116V270.038C278.116 273.384 284.695 272.719 286.998 272.15C288.21 271.865 289.587 270.418 289.753 270.418C290.798 270.418 295.168 281.57 296 283.397C286.381 295.616 259.639 298.772 252.205 283.159C251.326 281.332 249.616 276.279 249.616 274.523V236.725H241.352V218.764C252.514 220.804 253.963 211.669 258.974 204.551H276.976C276.976 204.551 278.092 205.595 278.092 205.666V218.764H278.116Z" fill="white"/>
<path d="M237.029 111.185L249.402 153.846L263.652 111.185H288.779L264.792 182.675C256.432 203.911 245.127 215.205 220.831 213.734C217.887 213.544 199.742 210.412 199.552 208.087L211.569 186.068C214.182 185.214 213.588 187.183 214.847 188.227C223.61 195.511 236.696 197.125 239.261 183.742L230.925 183.268L206.249 111.137H237.005L237.029 111.185Z" fill="white"/>
<path d="M137.969 124.282C141.46 105.799 182.761 105.704 194.612 114.934C207.104 124.662 201.262 150.311 202.497 164.69C203.114 171.926 206.368 167.584 207.698 168.842C208.434 169.53 209.123 180.682 207.698 181.892C200.621 187.918 180.22 185.878 176.562 175.557C163.405 192.783 132.602 189.271 133.409 163.978C134.074 142.884 157.919 142.054 173.95 141.128C173.404 137.118 175.874 124.045 170.53 123.167C163.547 122.004 162.74 132.753 164.189 137.379L139.727 138.851C139.109 139.017 137.922 138.091 137.922 137.759C137.922 134.058 137.304 127.485 137.922 124.282H137.969ZM173.997 151.592C162.265 148.626 157.943 170.171 168.939 167.94C175.066 166.683 174.045 156.195 173.997 151.592Z" fill="white"/>
<path d="M121.463 82V165.449C121.463 165.639 122.912 168.628 123.054 168.747C124.17 169.554 126.664 167.276 127.828 168.818C128.469 169.648 131.319 180.729 131.224 181.939C131.034 184.359 121.772 185.83 119.563 186.02C108.804 186.946 98.1406 185.024 94.3882 173.729C94.1032 172.899 92.9395 168.842 92.9395 168.438V82H121.463Z" fill="white"/>
</svg>
