<svg width="56" height="37" viewBox="0 0 56 37" fill="none" xmlns="http://www.w3.org/2000/svg">
<path d="M2.5 15.9099L2.18557e-07 15.9099L-2.18557e-07 20.9099L2.5 20.9099L2.5 18.4099L2.5 15.9099ZM55.2678 20.1777C56.2441 19.2014 56.2441 17.6185 55.2678 16.6421L39.3579 0.732246C38.3816 -0.244065 36.7986 -0.244065 35.8223 0.732245C34.846 1.70856 34.846 3.29147 35.8223 4.26778L49.9645 18.4099L35.8223 32.5521C34.846 33.5284 34.846 35.1113 35.8223 36.0876C36.7986 37.0639 38.3816 37.0639 39.3579 36.0876L55.2678 20.1777ZM2.5 18.4099L2.5 20.9099L53.5 20.9099L53.5 18.4099L53.5 15.9099L2.5 15.9099L2.5 18.4099Z" fill="black"/>
</svg>
