<svg width="42" height="36" viewBox="0 0 42 36" fill="none" xmlns="http://www.w3.org/2000/svg">
<path d="M39 0H27C25.8357 0 24.6873 0.271088 23.6459 0.791796C22.6045 1.3125 21.6986 2.06853 21 3C20.3014 2.06853 19.3955 1.3125 18.3541 0.791796C17.3127 0.271088 16.1643 0 15 0H3C2.20435 0 1.44129 0.31607 0.87868 0.87868C0.31607 1.44129 0 2.20435 0 3V27C0 27.7956 0.31607 28.5587 0.87868 29.1213C1.44129 29.6839 2.20435 30 3 30H15C16.1935 30 17.3381 30.4741 18.182 31.318C19.0259 32.1619 19.5 33.3065 19.5 34.5C19.5 34.8978 19.658 35.2794 19.9393 35.5607C20.2206 35.842 20.6022 36 21 36C21.3978 36 21.7794 35.842 22.0607 35.5607C22.342 35.2794 22.5 34.8978 22.5 34.5C22.5 33.3065 22.9741 32.1619 23.818 31.318C24.6619 30.4741 25.8065 30 27 30H39C39.7956 30 40.5587 29.6839 41.1213 29.1213C41.6839 28.5587 42 27.7956 42 27V3C42 2.20435 41.6839 1.44129 41.1213 0.87868C40.5587 0.31607 39.7956 0 39 0ZM15 27H3V3H15C16.1935 3 17.3381 3.47411 18.182 4.31802C19.0259 5.16193 19.5 6.30653 19.5 7.5V28.5C18.203 27.524 16.6232 26.9974 15 27ZM39 27H27C25.3768 26.9974 23.797 27.524 22.5 28.5V7.5C22.5 6.30653 22.9741 5.16193 23.818 4.31802C24.6619 3.47411 25.8065 3 27 3H39V27ZM27 7.5H34.5C34.8978 7.5 35.2794 7.65804 35.5607 7.93934C35.842 8.22064 36 8.60218 36 9C36 9.39782 35.842 9.77936 35.5607 10.0607C35.2794 10.342 34.8978 10.5 34.5 10.5H27C26.6022 10.5 26.2206 10.342 25.9393 10.0607C25.658 9.77936 25.5 9.39782 25.5 9C25.5 8.60218 25.658 8.22064 25.9393 7.93934C26.2206 7.65804 26.6022 7.5 27 7.5ZM36 15C36 15.3978 35.842 15.7794 35.5607 16.0607C35.2794 16.342 34.8978 16.5 34.5 16.5H27C26.6022 16.5 26.2206 16.342 25.9393 16.0607C25.658 15.7794 25.5 15.3978 25.5 15C25.5 14.6022 25.658 14.2206 25.9393 13.9393C26.2206 13.658 26.6022 13.5 27 13.5H34.5C34.8978 13.5 35.2794 13.658 35.5607 13.9393C35.842 14.2206 36 14.6022 36 15ZM36 21C36 21.3978 35.842 21.7794 35.5607 22.0607C35.2794 22.342 34.8978 22.5 34.5 22.5H27C26.6022 22.5 26.2206 22.342 25.9393 22.0607C25.658 21.7794 25.5 21.3978 25.5 21C25.5 20.6022 25.658 20.2206 25.9393 19.9393C26.2206 19.658 26.6022 19.5 27 19.5H34.5C34.8978 19.5 35.2794 19.658 35.5607 19.9393C35.842 20.2206 36 20.6022 36 21Z" fill="#242424"/>
</svg>
