<svg width="120" height="39" viewBox="0 0 120 39" fill="none" xmlns="http://www.w3.org/2000/svg">
<g clip-path="url(#clip0_5282_105)">
<path d="M42.2865 8.6308L45.9184 21.2472L50.1011 8.6308H57.4764L50.4357 29.7728C47.9818 36.0529 44.6636 39.3929 37.5322 38.9579C36.6678 38.9018 31.3419 37.9755 31.2861 37.2879L34.8135 30.7762C35.5803 30.5236 35.406 31.106 35.7755 31.4147C38.3478 33.5689 42.1889 34.0461 42.9418 30.0885L40.4949 29.9482L33.252 8.61677H42.2795L42.2865 8.6308Z" fill="#F9F9F9"/>
<path d="M66.692 8.03436C75.866 7.28355 80.5296 13.8514 78.8008 22.6366C76.5631 33.9829 58.6265 33.5268 57.072 21.998C56.1099 14.8267 58.9751 8.66589 66.692 8.03436ZM69.5293 14.0128C68.7415 13.269 67.3264 13.3813 66.5317 14.0689C64.761 15.5986 64.6983 23.1418 66.5038 24.6925C67.7098 25.724 69.2434 25.2609 69.9824 23.9557C71.0002 22.1734 71.0768 15.4583 69.5293 14.0128Z" fill="#F9F9F9"/>
<path d="M89.4249 8.63081V22.0191C89.4249 23.5558 92.2063 24.3697 93.1753 23.1348C93.2799 23.0014 93.8306 21.6612 93.8306 21.577V8.63081H102.203V29.7657C102.203 29.7657 101.896 30.0955 101.875 30.0955H96.2565C95.9707 28.7202 95.5664 27.3379 95.162 25.9906C94.8414 24.9241 94.695 26.2012 94.5416 26.4818C93.2799 28.7483 91.4046 30.5867 88.665 30.7621C86.2879 30.9165 83.5134 30.0184 82.2935 27.8501C81.8403 27.0432 81.0596 24.6434 81.0596 23.7803V8.63081H89.4318H89.4249Z" fill="#F9F9F9"/>
<path d="M114.751 8.6308H119.819L119.596 13.9426H114.751V23.7944C114.751 24.7837 116.682 24.5873 117.358 24.4189C117.714 24.3347 118.118 23.9066 118.167 23.9066C118.474 23.9066 119.756 27.2046 120 27.7449C117.177 31.3586 109.328 32.2918 107.146 27.6747C106.888 27.1344 106.386 25.6398 106.386 25.1205V13.9426H103.96V8.6308C107.236 9.23426 107.662 6.53275 109.132 4.42767H114.417C114.417 4.42767 114.744 4.73642 114.744 4.75747V8.6308H114.751Z" fill="#F9F9F9"/>
<path d="M13.217 12.5041C14.2418 7.03796 26.3645 7.00989 29.843 9.73947C33.5098 12.6164 31.7949 20.2017 32.1574 24.4539C32.3387 26.5941 33.2937 25.31 33.6841 25.6819C33.9002 25.8854 34.1024 29.1833 33.6841 29.5412C31.6067 31.3235 25.6186 30.72 24.545 27.6677C20.6831 32.762 11.6416 31.7235 11.8786 24.2434C12.0738 18.0054 19.0727 17.7598 23.7782 17.4861C23.6179 16.3003 24.3429 12.434 22.7744 12.1743C20.7249 11.8305 20.4879 15.0092 20.9131 16.3775L13.7329 16.8125C13.5517 16.8616 13.2031 16.588 13.2031 16.4897C13.2031 15.3951 13.0219 13.4514 13.2031 12.5041H13.217ZM23.7852 20.5806C20.3415 19.7035 19.0727 26.0748 22.3003 25.4153C24.0989 25.0434 23.7991 21.9419 23.7852 20.5806Z" fill="#F9F9F9"/>
<path d="M8.37225 0V24.6785C8.37225 24.7346 8.79749 25.6187 8.83932 25.6538C9.16696 25.8924 9.89892 25.2188 10.2405 25.6749C10.4287 25.9205 11.2652 29.1974 11.2374 29.5552C11.1816 30.271 8.46288 30.706 7.81457 30.7621C4.65667 31.0358 1.52666 30.4674 0.425235 27.1274C0.341582 26.8818 0 25.6819 0 25.5626V0H8.37225Z" fill="#F9F9F9"/>
</g>
<defs>
<clipPath id="clip0_5282_105">
<rect width="120" height="39" fill="white"/>
</clipPath>
</defs>
</svg>
