<svg width="56" height="37" viewBox="0 0 56 37" fill="none" xmlns="http://www.w3.org/2000/svg">
<path d="M53.5 15.9099L56 15.9099L56 20.9099L53.5 20.9099L53.5 18.4099L53.5 15.9099ZM0.732231 20.1777C-0.244076 19.2014 -0.244076 17.6185 0.732231 16.6421L16.6421 0.732246C17.6184 -0.244065 19.2014 -0.244065 20.1777 0.732245C21.154 1.70856 21.154 3.29147 20.1777 4.26778L6.03553 18.4099L20.1777 32.5521C21.154 33.5284 21.154 35.1113 20.1777 36.0876C19.2014 37.0639 17.6184 37.0639 16.6421 36.0876L0.732231 20.1777ZM53.5 18.4099L53.5 20.9099L2.5 20.9099L2.5 18.4099L2.5 15.9099L53.5 15.9099L53.5 18.4099Z" fill="black"/>
</svg>
